<svg xmlns="http://www.w3.org/2000/svg" width="1000" height="750" viewBox="0 0 1000 750">
    <rect width="1000" height="750" fill="#f4f5f7" />
    <line x1="0" y1="112.5" x2="1000" y2="112.5" stroke="#12314f" stroke-width="0.5" opacity="0.05" /><line x1="0" y1="125.5" x2="1000" y2="125.5" stroke="#12314f" stroke-width="0.5" opacity="0.05" /><line x1="0" y1="138.5" x2="1000" y2="138.5" stroke="#12314f" stroke-width="0.5" opacity="0.05" /><line x1="0" y1="151.5" x2="1000" y2="151.5" stroke="#12314f" stroke-width="0.5" opacity="0.05" /><line x1="0" y1="164.5" x2="1000" y2="164.5" stroke="#12314f" stroke-width="0.5" opacity="0.05" /><line x1="0" y1="177.5" x2="1000" y2="177.5" stroke="#12314f" stroke-width="0.5" opacity="0.05" /><line x1="0" y1="190.5" x2="1000" y2="190.5" stroke="#12314f" stroke-width="0.5" opacity="0.05" /><line x1="0" y1="203.5" x2="1000" y2="203.5" stroke="#12314f" stroke-width="0.5" opacity="0.05" /><line x1="0" y1="216.5" x2="1000" y2="216.5" stroke="#12314f" stroke-width="0.5" opacity="0.05" /><line x1="0" y1="229.5" x2="1000" y2="229.5" stroke="#12314f" stroke-width="0.5" opacity="0.05" /><line x1="0" y1="242.5" x2="1000" y2="242.5" stroke="#12314f" stroke-width="0.5" opacity="0.05" /><line x1="0" y1="255.5" x2="1000" y2="255.5" stroke="#12314f" stroke-width="0.5" opacity="0.05" /><line x1="0" y1="268.5" x2="1000" y2="268.5" stroke="#12314f" stroke-width="0.5" opacity="0.05" /><line x1="0" y1="281.5" x2="1000" y2="281.5" stroke="#12314f" stroke-width="0.5" opacity="0.05" /><line x1="0" y1="294.5" x2="1000" y2="294.5" stroke="#12314f" stroke-width="0.5" opacity="0.05" /><line x1="0" y1="307.5" x2="1000" y2="307.5" stroke="#12314f" stroke-width="0.5" opacity="0.05" /><line x1="0" y1="320.5" x2="1000" y2="320.5" stroke="#12314f" stroke-width="0.5" opacity="0.05" /><line x1="0" y1="333.5" x2="1000" y2="333.5" stroke="#12314f" stroke-width="0.5" opacity="0.05" /><line x1="0" y1="346.5" x2="1000" y2="346.5" stroke="#12314f" stroke-width="0.5" opacity="0.05" /><line x1="0" y1="359.5" x2="1000" y2="359.5" stroke="#12314f" stroke-width="0.5" opacity="0.05" /><line x1="0" y1="372.5" x2="1000" y2="372.5" stroke="#12314f" stroke-width="0.5" opacity="0.05" /><line x1="0" y1="385.5" x2="1000" y2="385.5" stroke="#12314f" stroke-width="0.5" opacity="0.05" /><line x1="0" y1="398.5" x2="1000" y2="398.5" stroke="#12314f" stroke-width="0.5" opacity="0.05" /><line x1="0" y1="411.5" x2="1000" y2="411.5" stroke="#12314f" stroke-width="0.5" opacity="0.05" /><line x1="0" y1="424.5" x2="1000" y2="424.5" stroke="#12314f" stroke-width="0.5" opacity="0.05" /><line x1="0" y1="437.5" x2="1000" y2="437.5" stroke="#12314f" stroke-width="0.5" opacity="0.05" /><line x1="0" y1="450.5" x2="1000" y2="450.5" stroke="#12314f" stroke-width="0.5" opacity="0.05" /><line x1="0" y1="463.5" x2="1000" y2="463.5" stroke="#12314f" stroke-width="0.5" opacity="0.05" /><line x1="0" y1="476.5" x2="1000" y2="476.5" stroke="#12314f" stroke-width="0.5" opacity="0.05" /><line x1="0" y1="489.5" x2="1000" y2="489.5" stroke="#12314f" stroke-width="0.5" opacity="0.05" /><line x1="0" y1="502.5" x2="1000" y2="502.5" stroke="#12314f" stroke-width="0.5" opacity="0.05" /><line x1="0" y1="515.5" x2="1000" y2="515.5" stroke="#12314f" stroke-width="0.5" opacity="0.05" /><line x1="0" y1="528.5" x2="1000" y2="528.5" stroke="#12314f" stroke-width="0.5" opacity="0.05" /><line x1="0" y1="541.5" x2="1000" y2="541.5" stroke="#12314f" stroke-width="0.5" opacity="0.05" /><line x1="0" y1="554.5" x2="1000" y2="554.5" stroke="#12314f" stroke-width="0.5" opacity="0.05" /><line x1="0" y1="567.5" x2="1000" y2="567.5" stroke="#12314f" stroke-width="0.5" opacity="0.05" /><line x1="0" y1="580.5" x2="1000" y2="580.5" stroke="#12314f" stroke-width="0.5" opacity="0.05" /><line x1="0" y1="593.5" x2="1000" y2="593.5" stroke="#12314f" stroke-width="0.5" opacity="0.05" /><line x1="0" y1="606.5" x2="1000" y2="606.5" stroke="#12314f" stroke-width="0.5" opacity="0.05" /><line x1="0" y1="619.5" x2="1000" y2="619.5" stroke="#12314f" stroke-width="0.5" opacity="0.05" /><line x1="0" y1="632.5" x2="1000" y2="632.5" stroke="#12314f" stroke-width="0.5" opacity="0.05" /><line x1="0" y1="645.5" x2="1000" y2="645.5" stroke="#12314f" stroke-width="0.5" opacity="0.05" /><line x1="0" y1="658.5" x2="1000" y2="658.5" stroke="#12314f" stroke-width="0.5" opacity="0.05" /><line x1="0" y1="671.5" x2="1000" y2="671.5" stroke="#12314f" stroke-width="0.5" opacity="0.05" /><line x1="0" y1="684.5" x2="1000" y2="684.5" stroke="#12314f" stroke-width="0.5" opacity="0.05" /><line x1="0" y1="697.5" x2="1000" y2="697.5" stroke="#12314f" stroke-width="0.5" opacity="0.05" /><line x1="0" y1="710.5" x2="1000" y2="710.5" stroke="#12314f" stroke-width="0.5" opacity="0.05" /><line x1="0" y1="723.5" x2="1000" y2="723.5" stroke="#12314f" stroke-width="0.5" opacity="0.05" /><line x1="0" y1="736.5" x2="1000" y2="736.5" stroke="#12314f" stroke-width="0.5" opacity="0.05" /><line x1="0" y1="749.5" x2="1000" y2="749.5" stroke="#12314f" stroke-width="0.5" opacity="0.05" />
    
      <rect x="-20" y="453.6307227366255" width="533.977366255144" height="296.3692772633745" fill="#12314f" opacity="0.92" />
      <polygon points="-32,453.6307227366255 246.98868312757202,283.42946244855966 525.977366255144,453.6307227366255" fill="#d9481f" />
      <rect x="60.0966049382716" y="542.5415059156378" width="96.11592592592592" height="118.5477109053498" fill="#f4f5f7" opacity="0.25" />
    
      <rect x="487.97736625514403" y="484.16409465020575" width="555.4778806584362" height="265.83590534979425" fill="#12314f" opacity="0.92" />
      <polygon points="475.97736625514403,484.16409465020575 765.7163065843622,348.07066615226336 1055.4552469135801,484.16409465020575" fill="#b83a17" />
      <rect x="571.2990483539095" y="563.914866255144" width="99.98601851851852" height="106.3343621399177" fill="#f4f5f7" opacity="0.25" />
    
    <rect width="1000" height="750" fill="#12314f" opacity="0.03" />
  </svg>